# xmcd CD database file
#
# Track frame offsets:
#	158
#	25967
#	54092
#	73867
#	107381
#	127341
#	153751
#	177072
#	194666
#	225914
#	241444
#	266001
#
# Disc length: 4013 seconds
#
# Revision: 1
# Processed by: cddbd v1.5.2PL0 Copyright (c) Steve Scherf et al.
# Submitted via: CDex 1.51
#
DISCID=9c0fab0c
DTITLE=Beautful Bobby Blackmon - Travelin' Home
DYEAR=2005
DGENRE=Blues
TTITLE0=I Don't Know But I Gotta Go
TTITLE1=Feels Like Rain
TTITLE2=I Been Down So Long
TTITLE3=If Mama Ain't Happy
TTITLE4=I'm Gonna Dedicate The Blues
TTITLE5=The Blues Blues
TTITLE6=I Had A Dream Last Night
TTITLE7=Tip-Toeing
TTITLE8=It Ain't Easy
TTITLE9=Sin City
TTITLE10=Turn Me On Or Turn Me Off
TTITLE11=Movin' In The Wrong Direction
EXTD=YEAR: 2005
EXTT0=
EXTT1=
EXTT2=
EXTT3=
EXTT4=
EXTT5=
EXTT6=
EXTT7=
EXTT8=
EXTT9=
EXTT10=
EXTT11=
PLAYORDER=
